<svg id="svg" version="1.1" xmlns="http://www.w3.org/2000/svg" xmlns:xlink="http://www.w3.org/1999/xlink" width="400" height="500" viewBox="0, 0, 400,256.88888888888886">
<g id="svgg">
<path id="path0" d="M143.866 46.633 C 143.654 46.691,142.036 46.858,140.270 47.004 C 136.377 47.327,131.215 48.393,127.681 49.604 C 124.779 50.599,121.191 51.950,120.873 52.168 C 120.732 52.264,119.634 52.863,118.433 53.499 C 113.811 55.943,110.948 57.854,107.258 60.957 C 102.188 65.220,95.055 72.979,95.055 74.230 C 95.055 74.380,94.935 74.502,94.789 74.502 C 94.644 74.502,94.441 74.705,94.340 74.952 C 94.238 75.199,93.606 76.233,92.935 77.250 C 92.264 78.267,91.715 79.183,91.715 79.285 C 91.715 79.388,91.564 79.654,91.379 79.877 C 90.970 80.371,88.570 85.488,87.995 87.091 C 87.067 89.678,86.269 92.158,86.051 93.128 C 85.925 93.693,85.640 94.907,85.419 95.825 C 83.717 102.885,83.637 105.146,83.902 138.728 C 84.031 155.048,84.090 175.694,84.035 184.608 C 83.937 200.238,83.950 200.822,84.412 200.999 C 85.368 201.366,135.068 201.528,135.505 201.166 C 135.854 200.876,135.902 199.188,135.902 187.155 C 135.902 171.993,135.812 172.743,137.581 173.174 C 139.499 173.642,150.093 173.855,154.126 173.507 C 161.477 172.873,169.946 170.550,175.466 167.653 C 178.051 166.296,180.239 165.082,180.347 164.944 C 180.417 164.855,181.285 164.279,182.274 163.666 C 184.053 162.563,187.854 159.681,189.551 158.147 C 191.573 156.320,193.273 154.543,196.858 150.511 C 199.913 147.074,204.041 140.399,205.901 135.886 C 206.276 134.977,206.749 133.868,206.952 133.423 C 207.156 132.978,207.322 132.452,207.322 132.254 C 207.322 132.056,207.422 131.785,207.545 131.651 C 207.986 131.170,209.335 125.936,210.324 120.873 C 210.700 118.953,210.772 117.236,210.749 110.726 C 210.722 103.087,210.613 101.606,209.782 97.624 C 208.834 93.082,208.377 91.420,207.558 89.531 C 207.320 88.982,206.658 87.132,206.310 86.042 C 205.956 84.933,202.495 78.047,201.673 76.814 C 201.248 76.179,200.901 75.559,200.900 75.438 C 200.900 75.317,200.568 74.797,200.163 74.282 C 199.392 73.302,198.917 72.185,199.276 72.197 C 199.526 72.205,201.927 74.618,201.927 74.862 C 201.927 74.955,202.360 75.590,202.890 76.272 C 203.420 76.955,204.027 77.774,204.239 78.093 C 204.451 78.412,204.827 78.937,205.074 79.261 C 205.321 79.585,205.523 79.929,205.523 80.026 C 205.523 80.122,205.755 80.495,206.037 80.855 C 206.320 81.214,206.551 81.724,206.551 81.987 C 206.551 82.872,206.997 82.477,207.162 81.447 C 207.410 79.898,207.606 79.858,214.197 80.017 C 231.283 80.428,249.356 80.662,264.889 80.673 C 283.953 80.687,283.361 80.637,282.269 82.142 C 281.954 82.576,281.522 83.188,281.310 83.501 C 281.098 83.814,280.806 84.201,280.660 84.360 C 280.386 84.659,277.986 87.995,276.339 90.366 C 275.823 91.108,274.973 92.322,274.449 93.064 C 272.296 96.111,270.263 99.211,270.263 99.445 C 270.263 99.582,270.090 99.762,269.878 99.843 C 269.666 99.924,269.493 100.105,269.493 100.244 C 269.493 100.383,269.290 100.762,269.043 101.086 C 268.796 101.410,268.452 101.890,268.280 102.154 C 268.107 102.418,267.558 103.237,267.059 103.976 C 266.561 104.714,266.153 105.433,266.153 105.572 C 266.153 105.712,265.922 105.950,265.639 106.101 C 265.356 106.253,265.125 106.598,265.125 106.869 C 265.125 107.606,264.575 108.671,264.194 108.671 C 263.853 108.671,263.327 109.440,263.327 109.938 C 263.327 110.342,263.986 110.271,264.355 109.827 C 264.530 109.615,265.007 109.441,265.414 109.441 C 265.820 109.441,266.153 109.321,266.153 109.173 C 266.153 109.026,266.442 108.593,266.795 108.212 L 267.437 107.520 267.437 108.334 C 267.437 108.983,267.320 109.165,266.859 109.231 C 266.395 109.297,266.266 109.502,266.202 110.276 C 266.110 111.385,266.883 111.614,268.076 110.833 C 268.933 110.272,269.600 110.449,269.612 111.241 C 269.625 112.148,270.118 112.287,270.218 111.412 C 270.283 110.847,270.397 110.725,270.732 110.862 C 270.969 110.959,271.793 111.189,272.563 111.374 C 273.933 111.703,274.631 112.249,274.631 112.994 C 274.631 113.199,274.831 113.513,275.077 113.693 C 275.554 114.042,274.769 115.958,273.944 116.455 C 273.757 116.568,273.603 116.829,273.603 117.035 C 273.603 117.241,273.369 117.611,273.083 117.855 C 272.797 118.100,272.190 118.922,271.734 119.681 C 271.279 120.440,270.443 121.601,269.878 122.261 C 269.313 122.921,268.446 123.998,267.951 124.654 C 266.966 125.961,266.200 126.358,265.990 125.670 C 265.531 124.168,264.491 123.862,264.026 125.093 C 263.658 126.068,263.394 126.092,263.048 125.182 C 262.734 124.356,262.384 124.094,261.586 124.089 C 261.265 124.087,260.198 123.680,259.216 123.186 C 258.234 122.691,257.210 122.286,256.939 122.286 C 256.582 122.286,256.402 122.044,256.281 121.396 C 256.080 120.329,255.719 120.029,255.493 120.741 C 255.402 121.026,255.163 121.259,254.960 121.259 C 254.758 121.259,254.592 121.365,254.592 121.494 C 254.592 121.623,254.012 122.403,253.303 123.228 C 252.594 124.052,251.582 125.322,251.055 126.050 C 249.740 127.865,246.908 131.448,246.050 132.383 C 245.662 132.806,245.344 133.247,245.344 133.362 C 245.344 133.478,244.987 133.979,244.551 134.476 C 243.711 135.432,243.249 136.050,241.371 138.728 C 240.726 139.647,239.939 140.745,239.621 141.169 C 239.303 141.593,238.004 143.327,236.734 145.022 C 235.464 146.718,234.310 148.246,234.168 148.417 C 234.027 148.589,233.477 149.340,232.947 150.087 C 232.416 150.834,231.111 152.601,230.046 154.014 C 228.980 155.427,227.716 157.161,227.235 157.868 C 226.755 158.574,225.894 159.788,225.321 160.565 C 223.344 163.247,223.405 163.135,223.738 163.469 C 223.974 163.704,231.013 163.776,253.770 163.776 L 283.494 163.776 283.565 174.566 C 283.605 180.501,283.578 185.599,283.506 185.895 C 283.376 186.430,283.308 186.433,268.811 186.618 C 247.751 186.885,178.292 186.517,178.292 186.138 C 178.292 185.819,181.127 181.577,181.916 180.716 C 182.183 180.424,182.402 180.098,182.402 179.991 C 182.402 179.884,182.547 179.643,182.723 179.455 C 183.043 179.114,186.153 174.770,186.641 173.982 C 186.991 173.416,187.179 173.151,187.866 172.254 C 188.190 171.830,189.026 170.617,189.723 169.557 C 190.420 168.497,191.804 166.561,192.798 165.254 C 193.792 163.948,195.183 162.110,195.890 161.170 C 196.596 160.230,197.845 158.583,198.665 157.508 C 199.485 156.434,200.352 155.284,200.592 154.953 C 200.831 154.622,201.779 153.335,202.697 152.095 C 204.447 149.731,204.758 149.301,209.910 142.108 C 211.666 139.657,213.999 136.420,215.096 134.914 C 216.192 133.409,217.521 131.541,218.049 130.764 C 218.577 129.987,219.998 127.964,221.207 126.268 C 222.417 124.573,223.627 122.810,223.897 122.351 C 224.167 121.891,224.479 121.516,224.590 121.516 C 224.701 121.516,224.791 121.408,224.791 121.277 C 224.791 121.054,225.775 119.543,227.610 116.947 C 228.038 116.341,228.388 115.798,228.388 115.739 C 228.388 115.681,228.735 115.119,229.159 114.491 C 229.583 113.863,229.929 113.243,229.929 113.113 C 229.929 112.984,230.132 112.654,230.381 112.380 C 230.956 111.746,231.483 110.567,231.282 110.366 C 230.981 110.065,230.168 110.218,230.020 110.604 C 229.467 112.044,227.874 111.346,227.874 109.665 C 227.874 108.723,227.845 108.689,227.141 108.830 C 226.695 108.919,225.616 108.724,224.380 108.329 C 223.264 107.973,222.028 107.612,221.633 107.526 C 220.870 107.361,220.861 107.346,220.420 105.626 C 220.096 104.362,219.943 104.360,219.784 105.617 C 219.723 106.095,219.597 107.094,219.502 107.836 C 219.292 109.488,218.998 109.567,218.768 108.034 C 218.673 107.402,218.487 106.817,218.354 106.735 C 218.221 106.652,218.112 106.142,218.112 105.600 C 218.112 104.966,217.976 104.563,217.730 104.469 C 217.273 104.293,216.827 105.028,216.827 105.956 C 216.827 106.371,216.684 106.615,216.442 106.615 C 216.177 106.615,216.057 106.350,216.057 105.768 C 216.057 104.832,215.674 104.303,214.997 104.303 C 214.590 104.303,214.547 104.929,214.458 112.075 C 214.358 120.109,214.250 121.189,212.939 127.168 C 212.645 128.510,212.252 130.071,212.065 130.636 C 211.879 131.201,211.438 132.597,211.085 133.738 C 210.203 136.593,207.985 141.533,206.501 143.951 C 205.822 145.057,205.267 146.003,205.267 146.052 C 205.267 146.514,201.012 152.327,198.979 154.643 C 194.323 159.947,192.786 161.410,188.182 164.922 C 185.840 166.710,184.589 167.528,183.435 168.028 C 183.085 168.180,182.738 168.387,182.664 168.489 C 181.793 169.689,168.778 174.854,165.383 175.347 C 164.064 175.538,163.615 176.025,160.182 180.989 C 159.133 182.505,156.984 185.463,156.262 186.384 C 156.151 186.525,155.627 187.277,155.097 188.054 C 153.925 189.773,152.471 191.811,151.799 192.678 C 151.526 193.031,150.722 194.130,150.014 195.119 C 148.696 196.959,146.459 200.026,144.945 202.071 C 144.478 202.701,144.171 203.337,144.262 203.485 C 144.410 203.724,173.020 203.595,176.365 203.341 C 176.930 203.298,179.094 203.251,181.174 203.237 C 185.686 203.206,186.052 202.828,182.330 202.042 L 179.961 201.541 181.631 201.379 C 183.928 201.155,209.417 201.173,212.588 201.401 C 214.001 201.502,214.637 201.606,214.001 201.631 C 211.945 201.712,204.387 202.645,203.725 202.899 C 203.277 203.071,205.337 203.196,210.533 203.313 C 214.631 203.406,222.376 203.602,227.746 203.750 C 247.765 204.301,300.117 204.026,300.785 203.367 C 301.598 202.564,301.175 147.478,300.352 146.968 C 299.887 146.680,284.826 147.062,284.725 147.364 C 284.671 147.528,285.078 147.723,285.674 147.818 C 286.587 147.964,286.687 148.044,286.467 148.456 C 285.961 149.401,273.601 149.720,261.143 149.109 C 258.999 149.004,259.156 149.079,259.616 148.376 C 260.014 147.769,260.056 147.761,260.866 148.147 C 261.630 148.512,261.776 148.509,262.531 148.118 C 263.984 147.367,263.399 147.082,260.303 147.031 C 256.124 146.963,255.837 146.667,257.854 144.509 C 258.118 144.226,258.599 143.561,258.924 143.031 C 259.249 142.502,259.614 142.068,259.734 142.068 C 259.854 142.068,260.031 141.820,260.128 141.516 C 260.284 141.022,261.419 139.471,265.268 134.489 C 265.922 133.642,268.125 130.694,270.162 127.938 C 272.198 125.183,274.188 122.524,274.582 122.030 C 274.976 121.535,275.578 120.668,275.920 120.103 C 276.261 119.538,276.816 118.786,277.153 118.433 C 277.490 118.080,278.146 117.213,278.611 116.506 C 279.355 115.373,280.530 113.783,281.309 112.855 C 281.452 112.683,281.829 112.162,282.147 111.698 C 282.867 110.641,283.460 109.830,286.335 105.974 C 287.598 104.278,288.690 102.775,288.760 102.632 C 288.831 102.490,289.749 101.218,290.801 99.806 C 291.852 98.394,293.135 96.660,293.652 95.954 C 294.168 95.247,296.140 92.549,298.034 89.958 C 299.928 87.366,302.090 84.419,302.838 83.407 C 303.587 82.395,304.685 80.862,305.279 80.000 C 305.873 79.138,306.821 77.852,307.386 77.142 C 307.951 76.432,308.645 75.526,308.927 75.128 C 309.210 74.730,309.952 73.704,310.577 72.848 C 311.201 71.992,312.302 70.482,313.024 69.493 C 313.745 68.504,314.535 67.405,314.779 67.052 C 315.023 66.699,315.679 65.774,316.235 64.997 C 316.792 64.220,317.167 63.509,317.069 63.417 C 316.972 63.325,288.394 63.172,253.565 63.077 L 190.238 62.905 189.467 62.192 C 189.043 61.799,187.829 60.802,186.769 59.976 C 185.710 59.149,184.785 58.405,184.714 58.321 C 184.483 58.048,180.254 55.332,178.668 54.438 C 174.180 51.910,170.214 50.335,163.520 48.426 C 159.186 47.190,146.175 46.003,143.866 46.633 M153.653 62.699 C 157.150 63.166,158.784 63.528,163.391 64.856 C 168.642 66.371,176.227 71.190,181.200 76.172 C 187.033 82.016,191.188 88.646,193.195 95.311 C 193.514 96.371,193.935 97.768,194.132 98.415 C 194.328 99.063,194.594 100.509,194.721 101.629 C 194.849 102.749,195.087 104.433,195.251 105.372 C 196.184 110.729,194.752 122.319,192.495 127.681 C 185.707 143.810,171.442 155.253,155.299 157.519 C 149.358 158.352,141.380 158.026,136.031 156.730 L 134.232 156.294 134.165 145.536 C 134.097 134.524,134.151 133.871,135.061 134.671 C 135.312 134.891,135.806 135.157,136.159 135.261 C 136.513 135.366,136.922 135.547,137.069 135.663 C 137.215 135.780,137.793 135.991,138.353 136.133 C 138.913 136.275,140.163 136.623,141.131 136.908 C 147.100 138.664,156.307 137.202,161.506 133.674 C 161.990 133.345,162.452 133.076,162.533 133.076 C 162.786 133.076,165.713 130.459,167.183 128.918 C 177.855 117.729,177.201 100.248,165.721 89.849 C 157.902 82.767,145.612 80.709,136.732 84.995 C 134.306 86.166,131.548 87.840,130.660 88.681 C 130.464 88.866,129.758 89.480,129.091 90.045 C 127.378 91.496,124.518 95.227,123.084 97.881 C 122.215 99.487,121.330 102.276,120.637 105.588 C 120.286 107.267,120.213 112.474,120.070 146.179 C 119.964 171.018,119.815 184.957,119.652 185.164 C 119.366 185.524,100.067 185.649,99.848 185.292 C 99.429 184.606,99.597 104.297,100.023 101.734 C 100.648 97.976,102.208 92.891,103.526 90.312 C 103.812 89.752,104.046 89.145,104.046 88.963 C 104.046 88.781,104.151 88.632,104.278 88.632 C 104.405 88.632,104.628 88.292,104.773 87.876 C 105.104 86.928,107.925 82.656,109.698 80.419 C 113.031 76.214,122.354 68.337,123.999 68.337 C 124.164 68.337,124.337 68.243,124.385 68.128 C 124.584 67.642,129.786 65.360,132.691 64.483 C 133.680 64.185,134.836 63.835,135.260 63.706 C 136.094 63.452,142.065 62.496,143.738 62.348 C 146.567 62.098,150.081 62.222,153.653 62.699 M199.037 71.826 C 198.792 72.071,198.301 71.674,198.483 71.379 C 198.592 71.204,198.736 71.208,198.920 71.393 C 199.071 71.544,199.124 71.739,199.037 71.826 M152.601 99.612 C 163.777 105.077,160.008 121.839,147.592 121.888 C 144.521 121.900,143.848 121.673,139.253 119.081 C 135.464 116.942,135.731 117.553,135.914 111.425 C 136.072 106.174,136.233 105.625,138.438 102.862 C 141.657 98.827,148.013 97.369,152.601 99.612 M228.131 108.900 C 228.131 109.189,228.799 109.458,229.005 109.252 C 229.314 108.943,229.146 108.671,228.645 108.671 C 228.362 108.671,228.131 108.774,228.131 108.900 M273.014 114.997 C 272.814 115.197,273.090 115.864,273.374 115.864 C 273.667 115.864,273.674 115.167,273.382 114.987 C 273.260 114.912,273.095 114.916,273.014 114.997 M254.920 124.271 C 254.827 124.513,254.695 124.547,254.524 124.376 C 254.383 124.235,254.346 123.912,254.443 123.660 C 254.586 123.288,254.662 123.268,254.839 123.555 C 254.960 123.750,254.996 124.072,254.920 124.271 M258.192 149.076 C 257.325 149.300,256.706 149.020,257.004 148.537 C 257.107 148.370,257.485 148.381,258.098 148.570 L 259.035 148.857 258.192 149.076 " stroke="none" fill="#d7c89c" fill-rule="evenodd"></path>
</g>
</svg>